<?xml version="1.0" standalone="no"?><!DOCTYPE svg PUBLIC "-//W3C//DTD SVG 1.1//EN" "http://www.w3.org/Graphics/SVG/1.1/DTD/svg11.dtd"><svg viewBox="0 0 1024 1024" version="1.1" xmlns="http://www.w3.org/2000/svg" xmlns:xlink="http://www.w3.org/1999/xlink" width="200" height="200"><path d="M884.992 307.2v603.136A113.664 113.664 0 0 1 771.328 1024H145.408a113.664 113.664 0 0 1-113.664-113.664V113.664A113.664 113.664 0 0 1 145.408 0h426.496z" fill="#0084FF"></path><path d="M681.728 338.688h172.288L539.392 24.064v172.288a142.336 142.336 0 0 0 142.336 142.336z" fill="#FFFFFF"></path><path d="M172.288 273.408m39.168 0l262.912 0q39.168 0 39.168 39.168l0 1.28q0 39.168-39.168 39.168l-262.912 0q-39.168 0-39.168-39.168l0-1.28q0-39.168 39.168-39.168Z" fill="#FFFFFF"></path><path d="M172.288 695.296m39.168 0l460.544 0q39.168 0 39.168 39.168l0 1.28q0 39.168-39.168 39.168l-460.544 0q-39.168 0-39.168-39.168l0-1.28q0-39.168 39.168-39.168Z" fill="#FFFFFF"></path><path d="M172.288 484.352m39.168 0l462.08 0q39.168 0 39.168 39.168l0 1.28q0 39.168-39.168 39.168l-462.08 0q-39.168 0-39.168-39.168l0-1.28q0-39.168 39.168-39.168Z" fill="#FFFFFF"></path><path d="M875.52 746.496v-1.536a180.992 180.992 0 0 0-361.984 0v11.264a139.776 139.776 0 0 0-84.736 128A139.776 139.776 0 0 0 568.576 1024H855.04a139.776 139.776 0 0 0 139.52-139.52 140.032 140.032 0 0 0-119.04-137.984z" fill="#FFC000"></path></svg>